<?xml version="1.0" encoding="UTF-8"?>
<svg width="18px" height="15px" viewBox="0 0 18 15" version="1.1" xmlns="http://www.w3.org/2000/svg" xmlns:xlink="http://www.w3.org/1999/xlink">
    <!-- Generator: Sketch 48.2 (47327) - http://www.bohemiancoding.com/sketch -->
    <title>icons/close-quote</title>
    <desc>Created with Sketch.</desc>
    <defs></defs>
    <g id="Option-2---Image-Full-Tablet" stroke="none" stroke-width="1" fill="none" fill-rule="evenodd" transform="translate(-692.000000, -176.000000)">
        <g id="icons/close-quote" transform="translate(701.000000, 183.411765) rotate(-180.000000) translate(-701.000000, -183.411765) translate(692.000000, 176.000000)" fill="#A71930">
            <path d="M17.7209024,0 C16.5265656,0 15.4630298,0.161776974 14.5287298,0.493214212 C13.5943837,0.82465145 12.7916674,1.33240313 12.1344852,2.024183 C11.477349,2.71859063 10.9735737,3.59939993 10.6221465,4.66995916 C10.2735738,5.74318854 10.097561,6.99430054 10.097561,8.43575584 L10.097561,14.4619799 L18,14.4619799 L18,7.95279838 L14.205019,7.95279838 C14.205019,6.35880566 14.4821828,5.17364204 15.0365566,4.39768898 C15.5908383,3.62173592 16.4865103,3.23147069 17.7209024,3.23147069 L17.7209024,0 Z M7.68407936,0 C5.28674344,0 3.40629063,0.674402728 2.04429186,2.03961051 C0.679336044,3.40477591 0,5.53440851 0,8.43575584 L0,14.4619799 L7.89684835,14.4619799 L7.90243902,14.4619799 L7.90243902,7.95279838 L4.08839891,7.95279838 C4.08839891,6.35880566 4.37218331,5.17364204 4.92857076,4.39768898 C5.4848658,3.62173592 6.40224437,3.23147069 7.68407936,3.23147069 L7.68407936,0 Z" id="Fill-1" transform="translate(9.000000, 7.230990) rotate(-360.000000) translate(-9.000000, -7.230990) "></path>
        </g>
    </g>
</svg>