<?xml version="1.0" encoding="UTF-8"?>
<svg width="40px" height="33px" viewBox="0 0 40 33" version="1.1" xmlns="http://www.w3.org/2000/svg" xmlns:xlink="http://www.w3.org/1999/xlink">
    <!-- Generator: Sketch 48.2 (47327) - http://www.bohemiancoding.com/sketch -->
    <title>icons/open-quote</title>
    <desc>Created with Sketch.</desc>
    <defs></defs>
    <g id="Option-2---Image-Full-Tablet" stroke="none" stroke-width="1" fill="none" fill-rule="evenodd" transform="translate(-364.000000, -113.000000)">
        <g id="icons/open-quote" transform="translate(384.000000, 129.585366) rotate(-360.000000) translate(-384.000000, -129.585366) translate(364.000000, 113.000000)" fill="#A71930">
            <path d="M39.3797832,0 C36.7257013,0 34.3622885,0.362009644 32.2860662,1.10366943 C30.2097415,1.84532922 28.4259276,2.98152926 26.9655226,4.52953068 C25.50522,6.08341226 24.3857194,8.05440634 23.6047701,10.4500054 C22.8301641,12.8515795 22.4390244,15.6512029 22.4390244,18.8767591 L22.4390244,32.3616895 L40,32.3616895 L40,17.7960413 L31.5667088,17.7960413 C31.5667088,14.2291509 32.1826285,11.5771007 33.4145702,9.84074421 C34.6463073,8.10438776 36.6366897,7.2310881 39.3797832,7.2310881 L39.3797832,0 Z M17.0757319,0 C11.7483188,0 7.56953474,1.50911644 4.54287081,4.56405295 C1.50963565,7.61889461 0,12.3843907 0,18.8767591 L0,32.3616895 L17.5485519,32.3616895 L17.5609756,32.3616895 L17.5609756,17.7960413 L9.08533092,17.7960413 C9.08533092,14.2291509 9.71596291,11.5771007 10.9523795,9.84074421 C12.1885907,8.10438776 14.2272097,7.2310881 17.0757319,7.2310881 L17.0757319,0 Z" id="Fill-1" transform="translate(20.000000, 16.180845) rotate(-360.000000) translate(-20.000000, -16.180845) "></path>
        </g>
    </g>
</svg>